<?xml version="1.0" encoding="utf-8"?>
<!-- Generator: Adobe Illustrator 26.0.0, SVG Export Plug-In . SVG Version: 6.00 Build 0)  -->
<svg version="1.1" id="图层_1" xmlns="http://www.w3.org/2000/svg" xmlns:xlink="http://www.w3.org/1999/xlink" x="0px" y="0px"
	 viewBox="0 0 24 24" style="enable-background:new 0 0 24 24;" xml:space="preserve">
<style type="text/css">
	.st0{fill:#BABABA;}
</style>
<path class="st0" d="M6.69,1.35l3.57,3.57h3.49l3.57-3.57c0.43-0.43,1.13-0.43,1.56,0c0.43,0.43,0.43,1.13,0,1.56l0,0l-2.01,2.01
	h2.29c2.13,0,3.85,1.72,3.85,3.85c0,0,0,0,0,0v8.8c0,2.13-1.72,3.85-3.85,3.85H4.85C2.72,21.41,1,19.69,1,17.56l0,0v-8.8
	c0-2.13,1.72-3.85,3.85-3.85l0,0h2.29L5.13,2.9c-0.43-0.43-0.43-1.13,0-1.56C5.56,0.92,6.26,0.92,6.69,1.35L6.69,1.35z M19.15,7.11
	H4.85C4,7.11,3.29,7.76,3.21,8.61L3.2,8.76v8.8c0,0.85,0.65,1.56,1.49,1.64l0.16,0.01h14.3c0.85,0,1.56-0.65,1.64-1.49l0.01-0.16
	v-8.8C20.8,7.85,20.06,7.11,19.15,7.11z M7.6,10.41c0.61,0,1.1,0.49,1.1,1.1v2.2c0,0.61-0.49,1.1-1.1,1.1s-1.1-0.49-1.1-1.1v-2.2
	C6.5,10.91,6.99,10.41,7.6,10.41z M16.4,10.41c0.61,0,1.1,0.49,1.1,1.1l0,0v2.2c0,0.61-0.49,1.1-1.1,1.1c-0.61,0-1.1-0.49-1.1-1.1
	v-2.2C15.3,10.91,15.79,10.41,16.4,10.41L16.4,10.41L16.4,10.41z"/>
</svg>
