<?xml version="1.0" encoding="utf-8"?>
<!-- Generator: Adobe Illustrator 26.0.0, SVG Export Plug-In . SVG Version: 6.00 Build 0)  -->
<svg version="1.1" id="图层_1" xmlns="http://www.w3.org/2000/svg" xmlns:xlink="http://www.w3.org/1999/xlink" x="0px" y="0px"
	 viewBox="0 0 24 24" style="enable-background:new 0 0 24 24;" xml:space="preserve">
<style type="text/css">
	.st0{fill:#BABABA;}
</style>
<path class="st0" d="M18.88,9.46V8.53l-6.99,4.19L4.9,8.53v0.93l6.99,4.19L18.88,9.46z"/>
<path class="st0" d="M14.85,13.2l3.53,2.97l0.46-0.94l-3.13-2.51L14.85,13.2z"/>
<path class="st0" d="M22.15,12.25C22.15,6.59,17.56,2,11.89,2S1.64,6.59,1.64,12.25s4.59,10.25,10.25,10.25S22.15,17.92,22.15,12.25
	z M2.57,12.25c0-5.15,4.17-9.32,9.32-9.32s9.32,4.17,9.32,9.32s-4.17,9.32-9.32,9.32S2.57,17.4,2.57,12.25z"/>
<path class="st0" d="M4.59,15.04l0.46,0.95l3.53-2.97l-0.86-0.48L4.59,15.04z"/>
</svg>
